<svg width="402" height="512" viewBox="0 0 402 512" fill="none" xmlns="http://www.w3.org/2000/svg">
<path d="M386.342 173.386C380.385 145.437 367.037 137.714 330.353 147.875C294.217 157.859 239.857 202.656 238.006 204.191C237.955 204.226 237.854 204.309 237.826 204.328C223.944 184.781 222.104 161.844 183.361 128.75C156.033 105.411 133.983 86.54 133.983 86.54C133.983 86.54 87.26 47.993 70.967 24.876C56.591 4.48099 56.49 -0.782013 52.634 0.0899866C46.588 1.46099 42.396 27.559 73.818 58.723C75.126 60.036 76.478 61.352 77.912 62.681C78.451 63.177 78.998 63.669 79.557 64.165C84.045 68.204 89.119 72.298 94.869 76.419C65.396 57.377 56.443 52.474 43.979 39.076C31.19 25.32 27.693 18.882 22.728 15.988C16.435 12.316 17.69 20.828 19.404 27.754C20.822 33.453 31.134 58.442 49.478 77.024C53.283 80.938 57.416 84.559 61.864 87.669C40.369 79.61 27.232 72.25 18.072 65.875C8.83801 59.445 -5.59999 54.027 3.15801 68.581C7.93501 76.519 22.322 94.871 38.876 107.667C39.052 107.804 39.227 107.948 39.403 108.085C39.743 108.347 40.09 108.589 40.434 108.847C45.36 112.558 50.469 115.742 55.59 118.019C19.29 105.98 10.86 104.512 4.83601 102.129C-1.25399 99.719 0.680009 109.465 5.19501 113.84C9.19101 117.707 13.117 130.882 33.149 141.726C35.587 143.081 38.219 144.41 41.168 145.691C20.321 141.351 9.24601 137.921 7.68001 137.672H7.67201C7.64101 137.664 7.54301 137.641 7.51601 137.637C6.86701 140.743 8.61401 155.789 24.133 168.407C27.977 171.579 32.657 174.61 38.399 177.293C29.724 176.434 23.563 176.855 19.629 177.48C16.583 177.969 14.887 181.347 16.29 184.098C19.594 190.571 27.239 201.641 42.43 209.258C46.508 211.348 51.056 213.227 56.305 214.676C40.477 214.988 33.571 221.43 40.043 225.844C51.582 233.71 59.738 245.867 68.793 249.363C69.317 259.214 81.27 277.097 94.438 278.738C91.571 289.925 102.411 309.808 127.094 308.039C131.884 325.046 141.747 327.093 142 329.449C143.832 334.551 168.137 355.285 191.274 374.191C186.016 380.82 178.7 386.741 171.957 392.226C160.454 401.71 138.801 414.972 134.266 422.527C129.817 430.081 130.071 436.801 133.762 439.902C128.727 449.136 128.977 463.07 134.602 465.593C130.907 473.479 134.602 482.124 141.317 484.898C138.801 496.648 159.954 507.98 168.094 504.371C174.22 520.824 193.696 507.39 209.981 494.801C238.352 469.703 252.539 436.129 257.575 377.617C267.829 373.578 274.997 370.606 281.106 365.426C281.754 365.578 282.403 365.727 283.036 365.973C289.77 368.594 286.594 382.527 280.665 385.274C280.587 385.301 280.52 385.36 280.443 385.383C280.443 385.383 280.462 385.399 280.47 385.403C280.42 385.422 280.376 385.473 280.325 385.493C281.032 386.255 285.376 388.794 291.091 385.802C291.549 385.618 291.962 385.493 292.458 385.271C293.384 385.267 295.572 384.564 296.752 393.829C298.939 393.68 301.728 389.275 301.814 380.446C301.814 380.446 303.427 374.271 306.794 373.884C306.794 373.755 306.794 373.63 306.794 373.506C306.744 364.498 301.439 356.365 293.489 352.131C293.099 351.924 292.696 351.709 292.302 351.498C294.314 348.084 296.36 344.127 298.54 339.428C309.704 315.256 307.856 295.526 311.048 274.71C313.818 256.409 335.474 218.889 340.173 212.175C347.814 201.261 364.603 189.511 364.603 189.511C375.095 189.089 395.408 190.85 401.369 193.284C402.377 193.707 399.607 178.594 386.342 173.386ZM359.728 170.953C357.103 170.953 354.974 168.571 354.974 165.633C354.974 162.695 357.103 160.316 359.728 160.316C362.353 160.316 364.482 162.695 364.482 165.633C364.482 168.57 362.353 170.953 359.728 170.953Z" fill="#6CF6FF"/>
</svg>
